# MagicaVoxel @ Ephtracy

# group
o 

# material
mtllib musket.mtl
usemtl palette

# normals
vn -1 0 0
vn 1 0 0
vn 0 0 1
vn 0 0 -1
vn 0 -1 0
vn 0 1 0

# texcoords
vt 0.138672 0.5
vt 0.185547 0.5
vt 0.841797 0.5
vt 0.904297 0.5
vt 0.958984 0.5
vt 0.978516 0.5
vt 0.990234 0.5
vt 0.994141 0.5

# verts
v 0.5 0.8 -0.2
v 0.5 0.8 -0.3
v 0.5 0.9 -0.2
v 0.5 0.9 -0.3
v 0.6 0.7 -0.1
v 0.6 0.7 -0.2
v 0.6 0.7 -0.3
v 0.6 0.8 -0.1
v 0.6 0.8 -0.2
v 0.6 0.8 -0.3
v 0.6 0.8 -0.4
v 0.6 0.9 -0.1
v 0.6 0.9 -0.2
v 0.6 0.9 -0.3
v 0.6 0.9 -0.4
v 0.6 1 -0.2
v 0.6 1 -0.3
v 0.6 1 -0.5
v 0.6 1.1 -0.1
v 0.6 1.1 -0.2
v 0.6 1.1 -0.5
v 0.6 1.1 -0.8
v 0.6 1.2 -0.2
v 0.6 1.2 -0.3
v 0.6 1.2 -0.8
v 0.6 1.2 -1.2
v 0.6 1.3 -0.2
v 0.6 1.3 -0.3
v 0.6 1.3 -0.5
v 0.6 1.3 -1.2
v 0.6 1.3 -1.6
v 0.6 1.4 -0.2
v 0.6 1.4 -0.5
v 0.6 1.4 -1.6
v 0.7 0.6 -0.1
v 0.7 0.6 -0.3
v 0.7 0.7 0
v 0.7 0.7 -0.1
v 0.7 0.7 -0.2
v 0.7 0.7 -0.3
v 0.7 0.7 -0.4
v 0.7 0.8 -0.1
v 0.7 0.8 -0.3
v 0.7 0.8 -0.4
v 0.7 0.9 -0.1
v 0.7 0.9 -0.3
v 0.7 0.9 -0.4
v 0.7 0.9 -0.6
v 0.7 0.9 -0.8
v 0.7 1 -0.3
v 0.7 1 -0.4
v 0.7 1 -0.6
v 0.7 1 -0.7
v 0.7 1.1 0
v 0.7 1.1 -0.1
v 0.7 1.1 -0.2
v 0.7 1.1 -0.7
v 0.7 1.1 -0.8
v 0.7 1.1 -1.1
v 0.7 1.2 -0.2
v 0.7 1.2 -0.8
v 0.7 1.2 -1.1
v 0.7 1.2 -1.2
v 0.7 1.2 -1.6
v 0.7 1.3 -0.1
v 0.7 1.3 -0.2
v 0.7 1.3 -1.2
v 0.7 1.3 -1.6
v 0.7 1.4 -0.3
v 0.7 1.4 -0.5
v 0.7 1.4 -1.6
v 0.7 1.5 -0.2
v 0.7 1.5 -0.3
v 0.7 1.5 -0.4
v 0.7 1.5 -0.5
v 0.7 1.5 -0.6
v 0.7 1.5 -1.5
v 0.7 1.5 -1.6
v 0.7 1.6 -0.2
v 0.7 1.6 -0.4
v 0.7 1.6 -0.5
v 0.7 1.6 -0.6
v 0.7 1.6 -1.5
v 0.7 1.6 -1.6
v 0.8 0.7 -0.1
v 0.8 0.7 -0.2
v 0.8 0.8 -0.1
v 0.8 0.8 -0.2
v 0.8 1.3 -0.5
v 0.8 1.3 -0.6
v 0.8 1.3 -1.1
v 0.8 1.3 -1.5
v 0.8 1.4 -0.5
v 0.8 1.4 -1.5
v 0.7 0.7 -0.1
v 0.7 0.7 -0.2
v 0.7 0.8 -0.1
v 0.7 0.8 -0.2
v 0.7 1.3 -0.5
v 0.7 1.3 -0.6
v 0.7 1.3 -1.1
v 0.7 1.3 -1.5
v 0.7 1.4 -0.5
v 0.7 1.4 -1.5
v 0.8 0.6 -0.1
v 0.8 0.6 -0.3
v 0.8 0.7 0
v 0.8 0.7 -0.1
v 0.8 0.7 -0.2
v 0.8 0.7 -0.3
v 0.8 0.7 -0.4
v 0.8 0.8 -0.1
v 0.8 0.8 -0.3
v 0.8 0.8 -0.4
v 0.8 0.9 -0.1
v 0.8 0.9 -0.3
v 0.8 0.9 -0.4
v 0.8 0.9 -0.6
v 0.8 0.9 -0.8
v 0.8 1 -0.3
v 0.8 1 -0.4
v 0.8 1 -0.6
v 0.8 1 -0.7
v 0.8 1.1 0
v 0.8 1.1 -0.1
v 0.8 1.1 -0.2
v 0.8 1.1 -0.7
v 0.8 1.1 -0.8
v 0.8 1.1 -1.1
v 0.8 1.2 -0.2
v 0.8 1.2 -0.7
v 0.8 1.2 -1.1
v 0.8 1.2 -1.2
v 0.8 1.2 -1.6
v 0.8 1.3 -0.1
v 0.8 1.3 -0.2
v 0.8 1.3 -1.2
v 0.8 1.3 -1.6
v 0.8 1.4 -0.3
v 0.8 1.4 -0.5
v 0.8 1.4 -1.6
v 0.8 1.5 -0.2
v 0.8 1.5 -0.3
v 0.8 1.5 -0.4
v 0.8 1.5 -0.5
v 0.8 1.5 -0.6
v 0.8 1.5 -1.5
v 0.8 1.5 -1.6
v 0.8 1.6 -0.2
v 0.8 1.6 -0.4
v 0.8 1.6 -0.5
v 0.8 1.6 -0.6
v 0.8 1.6 -1.5
v 0.8 1.6 -1.6
v 0.9 0.7 -0.1
v 0.9 0.7 -0.2
v 0.9 0.7 -0.3
v 0.9 0.8 -0.1
v 0.9 0.8 -0.2
v 0.9 0.8 -0.3
v 0.9 0.8 -0.4
v 0.9 0.9 -0.1
v 0.9 0.9 -0.2
v 0.9 0.9 -0.3
v 0.9 0.9 -0.4
v 0.9 1 -0.2
v 0.9 1 -0.3
v 0.9 1 -0.5
v 0.9 1.1 -0.1
v 0.9 1.1 -0.2
v 0.9 1.1 -0.5
v 0.9 1.1 -0.7
v 0.9 1.2 -0.2
v 0.9 1.2 -0.3
v 0.9 1.2 -0.7
v 0.9 1.2 -1.2
v 0.9 1.3 -0.2
v 0.9 1.3 -0.3
v 0.9 1.3 -0.5
v 0.9 1.3 -1.2
v 0.9 1.3 -1.6
v 0.9 1.4 -0.2
v 0.9 1.4 -0.5
v 0.9 1.4 -1.6
v 1 0.8 -0.2
v 1 0.8 -0.3
v 1 0.9 -0.2
v 1 0.9 -0.3
v 0.7 0.7 0
v 0.7 1.1 0
v 0.8 0.7 0
v 0.8 1.1 0
v 0.6 0.7 -0.1
v 0.6 0.8 -0.1
v 0.6 0.9 -0.1
v 0.6 1.1 -0.1
v 0.7 0.6 -0.1
v 0.7 0.7 -0.1
v 0.7 0.8 -0.1
v 0.7 0.9 -0.1
v 0.7 1.1 -0.1
v 0.7 1.3 -0.1
v 0.8 0.6 -0.1
v 0.8 0.7 -0.1
v 0.8 0.8 -0.1
v 0.8 0.9 -0.1
v 0.8 1.1 -0.1
v 0.8 1.3 -0.1
v 0.9 0.7 -0.1
v 0.9 0.8 -0.1
v 0.9 0.9 -0.1
v 0.9 1.1 -0.1
v 0.5 0.8 -0.2
v 0.5 0.9 -0.2
v 0.6 0.8 -0.2
v 0.6 0.9 -0.2
v 0.6 1.1 -0.2
v 0.6 1.2 -0.2
v 0.6 1.3 -0.2
v 0.6 1.4 -0.2
v 0.7 0.7 -0.2
v 0.7 0.8 -0.2
v 0.7 1.1 -0.2
v 0.7 1.2 -0.2
v 0.7 1.3 -0.2
v 0.7 1.5 -0.2
v 0.7 1.6 -0.2
v 0.8 0.7 -0.2
v 0.8 0.8 -0.2
v 0.8 1.1 -0.2
v 0.8 1.2 -0.2
v 0.8 1.3 -0.2
v 0.8 1.5 -0.2
v 0.8 1.6 -0.2
v 0.9 0.8 -0.2
v 0.9 0.9 -0.2
v 0.9 1.1 -0.2
v 0.9 1.2 -0.2
v 0.9 1.3 -0.2
v 0.9 1.4 -0.2
v 1 0.8 -0.2
v 1 0.9 -0.2
v 0.7 1.4 -0.3
v 0.7 1.5 -0.3
v 0.8 1.4 -0.3
v 0.8 1.5 -0.3
v 0.7 1.5 -0.5
v 0.7 1.6 -0.5
v 0.8 1.5 -0.5
v 0.8 1.6 -0.5
v 0.7 0.9 -0.6
v 0.7 1 -0.6
v 0.8 0.9 -0.6
v 0.8 1 -0.6
v 0.7 1 -0.7
v 0.7 1.1 -0.7
v 0.8 1 -0.7
v 0.8 1.1 -0.7
v 0.7 1.3 -1.5
v 0.7 1.4 -1.5
v 0.7 1.5 -1.5
v 0.7 1.6 -1.5
v 0.8 1.3 -1.5
v 0.8 1.4 -1.5
v 0.8 1.5 -1.5
v 0.8 1.6 -1.5
v 0.7 0.7 -0.1
v 0.7 0.8 -0.1
v 0.8 0.7 -0.1
v 0.8 0.8 -0.1
v 0.5 0.8 -0.3
v 0.5 0.9 -0.3
v 0.6 0.7 -0.3
v 0.6 0.8 -0.3
v 0.6 0.9 -0.3
v 0.6 1 -0.3
v 0.7 0.6 -0.3
v 0.7 0.7 -0.3
v 0.7 0.8 -0.3
v 0.7 0.9 -0.3
v 0.7 1 -0.3
v 0.8 0.6 -0.3
v 0.8 0.7 -0.3
v 0.8 0.8 -0.3
v 0.8 0.9 -0.3
v 0.8 1 -0.3
v 0.9 0.7 -0.3
v 0.9 0.8 -0.3
v 0.9 0.9 -0.3
v 0.9 1 -0.3
v 1 0.8 -0.3
v 1 0.9 -0.3
v 0.6 0.8 -0.4
v 0.6 0.9 -0.4
v 0.7 0.7 -0.4
v 0.7 0.8 -0.4
v 0.7 0.9 -0.4
v 0.7 1 -0.4
v 0.7 1.5 -0.4
v 0.7 1.6 -0.4
v 0.8 0.7 -0.4
v 0.8 0.8 -0.4
v 0.8 0.9 -0.4
v 0.8 1 -0.4
v 0.8 1.5 -0.4
v 0.8 1.6 -0.4
v 0.9 0.8 -0.4
v 0.9 0.9 -0.4
v 0.6 1 -0.5
v 0.6 1.1 -0.5
v 0.7 1.3 -0.5
v 0.7 1.4 -0.5
v 0.8 1.3 -0.5
v 0.8 1.4 -0.5
v 0.9 1 -0.5
v 0.9 1.1 -0.5
v 0.7 1.5 -0.6
v 0.7 1.6 -0.6
v 0.8 1.5 -0.6
v 0.8 1.6 -0.6
v 0.8 1.1 -0.7
v 0.8 1.2 -0.7
v 0.9 1.1 -0.7
v 0.9 1.2 -0.7
v 0.6 1.1 -0.8
v 0.6 1.2 -0.8
v 0.7 0.9 -0.8
v 0.7 1.1 -0.8
v 0.7 1.2 -0.8
v 0.8 0.9 -0.8
v 0.8 1.1 -0.8
v 0.7 1.1 -1.1
v 0.7 1.2 -1.1
v 0.8 1.1 -1.1
v 0.8 1.2 -1.1
v 0.6 1.2 -1.2
v 0.6 1.3 -1.2
v 0.7 1.2 -1.2
v 0.7 1.3 -1.2
v 0.8 1.2 -1.2
v 0.8 1.3 -1.2
v 0.9 1.2 -1.2
v 0.9 1.3 -1.2
v 0.6 1.3 -1.6
v 0.6 1.4 -1.6
v 0.7 1.2 -1.6
v 0.7 1.3 -1.6
v 0.7 1.4 -1.6
v 0.7 1.5 -1.6
v 0.7 1.6 -1.6
v 0.8 1.2 -1.6
v 0.8 1.3 -1.6
v 0.8 1.4 -1.6
v 0.8 1.5 -1.6
v 0.8 1.6 -1.6
v 0.9 1.3 -1.6
v 0.9 1.4 -1.6
v 0.7 0.6 -0.1
v 0.8 0.6 -0.1
v 0.7 0.6 -0.3
v 0.8 0.6 -0.3
v 0.7 0.7 0
v 0.8 0.7 0
v 0.6 0.7 -0.1
v 0.7 0.7 -0.1
v 0.8 0.7 -0.1
v 0.9 0.7 -0.1
v 0.6 0.7 -0.2
v 0.7 0.7 -0.2
v 0.8 0.7 -0.2
v 0.9 0.7 -0.2
v 0.6 0.7 -0.3
v 0.7 0.7 -0.3
v 0.8 0.7 -0.3
v 0.9 0.7 -0.3
v 0.7 0.7 -0.4
v 0.8 0.7 -0.4
v 0.7 0.8 -0.1
v 0.8 0.8 -0.1
v 0.5 0.8 -0.2
v 0.6 0.8 -0.2
v 0.7 0.8 -0.2
v 0.8 0.8 -0.2
v 0.9 0.8 -0.2
v 1 0.8 -0.2
v 0.5 0.8 -0.3
v 0.6 0.8 -0.3
v 0.7 0.8 -0.3
v 0.8 0.8 -0.3
v 0.9 0.8 -0.3
v 1 0.8 -0.3
v 0.6 0.8 -0.4
v 0.7 0.8 -0.4
v 0.8 0.8 -0.4
v 0.9 0.8 -0.4
v 0.7 0.9 -0.6
v 0.8 0.9 -0.6
v 0.7 0.9 -0.8
v 0.8 0.9 -0.8
v 0.6 1 -0.3
v 0.7 1 -0.3
v 0.8 1 -0.3
v 0.9 1 -0.3
v 0.7 1 -0.4
v 0.8 1 -0.4
v 0.6 1 -0.5
v 0.9 1 -0.5
v 0.6 1.1 -0.5
v 0.9 1.1 -0.5
v 0.7 1.1 -0.7
v 0.8 1.1 -0.7
v 0.9 1.1 -0.7
v 0.6 1.1 -0.8
v 0.7 1.1 -0.8
v 0.8 1.1 -0.8
v 0.7 1.1 -1.1
v 0.8 1.1 -1.1
v 0.8 1.2 -0.7
v 0.9 1.2 -0.7
v 0.6 1.2 -0.8
v 0.7 1.2 -0.8
v 0.7 1.2 -1.1
v 0.8 1.2 -1.1
v 0.6 1.2 -1.2
v 0.7 1.2 -1.2
v 0.8 1.2 -1.2
v 0.9 1.2 -1.2
v 0.7 1.2 -1.6
v 0.8 1.2 -1.6
v 0.6 1.3 -1.2
v 0.7 1.3 -1.2
v 0.8 1.3 -1.2
v 0.9 1.3 -1.2
v 0.6 1.3 -1.6
v 0.7 1.3 -1.6
v 0.8 1.3 -1.6
v 0.9 1.3 -1.6
v 0.7 1.4 -0.5
v 0.8 1.4 -0.5
v 0.7 1.4 -1.5
v 0.8 1.4 -1.5
v 0.7 1.5 -0.2
v 0.8 1.5 -0.2
v 0.7 1.5 -0.3
v 0.8 1.5 -0.3
v 0.7 0.7 -0.1
v 0.8 0.7 -0.1
v 0.7 0.7 -0.2
v 0.8 0.7 -0.2
v 0.5 0.9 -0.2
v 0.6 0.9 -0.2
v 0.9 0.9 -0.2
v 1 0.9 -0.2
v 0.5 0.9 -0.3
v 0.6 0.9 -0.3
v 0.7 0.9 -0.3
v 0.8 0.9 -0.3
v 0.9 0.9 -0.3
v 1 0.9 -0.3
v 0.6 0.9 -0.4
v 0.7 0.9 -0.4
v 0.8 0.9 -0.4
v 0.9 0.9 -0.4
v 0.7 1 -0.6
v 0.8 1 -0.6
v 0.7 1 -0.7
v 0.8 1 -0.7
v 0.7 1.1 0
v 0.8 1.1 0
v 0.6 1.1 -0.1
v 0.7 1.1 -0.1
v 0.8 1.1 -0.1
v 0.9 1.1 -0.1
v 0.6 1.1 -0.2
v 0.7 1.1 -0.2
v 0.8 1.1 -0.2
v 0.9 1.1 -0.2
v 0.7 1.3 -0.1
v 0.8 1.3 -0.1
v 0.7 1.3 -0.2
v 0.8 1.3 -0.2
v 0.7 1.3 -0.5
v 0.8 1.3 -0.5
v 0.7 1.3 -0.6
v 0.8 1.3 -0.6
v 0.7 1.3 -1.1
v 0.8 1.3 -1.1
v 0.7 1.3 -1.5
v 0.8 1.3 -1.5
v 0.6 1.4 -0.2
v 0.9 1.4 -0.2
v 0.7 1.4 -0.3
v 0.8 1.4 -0.3
v 0.6 1.4 -0.5
v 0.7 1.4 -0.5
v 0.8 1.4 -0.5
v 0.9 1.4 -0.5
v 0.6 1.4 -1.6
v 0.7 1.4 -1.6
v 0.8 1.4 -1.6
v 0.9 1.4 -1.6
v 0.7 1.5 -0.4
v 0.8 1.5 -0.4
v 0.7 1.5 -0.5
v 0.8 1.5 -0.5
v 0.7 1.5 -0.6
v 0.8 1.5 -0.6
v 0.7 1.5 -1.5
v 0.8 1.5 -1.5
v 0.7 1.6 -0.2
v 0.8 1.6 -0.2
v 0.7 1.6 -0.4
v 0.8 1.6 -0.4
v 0.7 1.6 -0.5
v 0.8 1.6 -0.5
v 0.7 1.6 -0.6
v 0.8 1.6 -0.6
v 0.7 1.6 -1.5
v 0.8 1.6 -1.5
v 0.7 1.6 -1.6
v 0.8 1.6 -1.6

# faces
f 3/1/1 2/1/1 1/1/1
f 4/1/1 2/1/1 3/1/1
f 8/4/1 6/4/1 5/4/1
f 9/2/1 7/2/1 6/2/1
f 9/4/1 6/4/1 8/4/1
f 10/2/1 7/2/1 9/2/1
f 12/2/1 9/2/1 8/2/1
f 13/2/1 9/2/1 12/2/1
f 14/2/1 11/2/1 10/2/1
f 15/2/1 11/2/1 14/2/1
f 16/3/1 13/3/1 12/3/1
f 16/2/1 14/2/1 13/2/1
f 17/2/1 14/2/1 16/2/1
f 19/3/1 17/3/1 16/3/1
f 19/3/1 18/3/1 17/3/1
f 19/3/1 16/3/1 12/3/1
f 20/3/1 18/3/1 19/3/1
f 21/3/1 18/3/1 20/3/1
f 23/3/1 22/3/1 21/3/1
f 23/3/1 21/3/1 20/3/1
f 24/3/1 22/3/1 23/3/1
f 25/3/1 22/3/1 24/3/1
f 27/2/1 24/2/1 23/2/1
f 28/3/1 26/3/1 25/3/1
f 28/2/1 24/2/1 27/2/1
f 28/3/1 25/3/1 24/3/1
f 29/3/1 26/3/1 28/3/1
f 30/3/1 26/3/1 29/3/1
f 32/3/1 28/3/1 27/3/1
f 32/3/1 29/3/1 28/3/1
f 33/2/1 31/2/1 30/2/1
f 33/3/1 29/3/1 32/3/1
f 33/2/1 30/2/1 29/2/1
f 34/2/1 31/2/1 33/2/1
f 38/3/1 36/3/1 35/3/1
f 39/3/1 36/3/1 38/3/1
f 40/3/1 36/3/1 39/3/1
f 42/3/1 38/3/1 37/3/1
f 43/3/1 41/3/1 40/3/1
f 44/3/1 41/3/1 43/3/1
f 45/3/1 42/3/1 37/3/1
f 50/3/1 47/3/1 46/3/1
f 51/3/1 47/3/1 50/3/1
f 52/2/1 49/2/1 48/2/1
f 53/2/1 49/2/1 52/2/1
f 54/3/1 45/3/1 37/3/1
f 55/3/1 45/3/1 54/3/1
f 57/2/1 49/2/1 53/2/1
f 58/2/1 49/2/1 57/2/1
f 60/3/1 56/3/1 55/3/1
f 61/3/1 59/3/1 58/3/1
f 62/3/1 59/3/1 61/3/1
f 65/3/1 60/3/1 55/3/1
f 66/3/1 60/3/1 65/3/1
f 67/2/1 64/2/1 63/2/1
f 68/2/1 64/2/1 67/2/1
f 73/2/1 70/2/1 69/2/1
f 73/2/1 71/2/1 70/2/1
f 74/2/1 71/2/1 73/2/1
f 75/2/1 71/2/1 74/2/1
f 76/2/1 71/2/1 75/2/1
f 77/2/1 71/2/1 76/2/1
f 78/2/1 71/2/1 77/2/1
f 79/2/1 73/2/1 72/2/1
f 79/2/1 74/2/1 73/2/1
f 80/2/1 74/2/1 79/2/1
f 81/1/1 76/1/1 75/1/1
f 82/1/1 76/1/1 81/1/1
f 83/1/1 78/1/1 77/1/1
f 84/1/1 78/1/1 83/1/1
f 87/4/1 86/4/1 85/4/1
f 88/4/1 86/4/1 87/4/1
f 93/2/1 90/2/1 89/2/1
f 93/2/1 92/2/1 91/2/1
f 93/2/1 91/2/1 90/2/1
f 94/2/1 92/2/1 93/2/1
f 95/4/2 96/4/2 97/4/2
f 97/4/2 96/4/2 98/4/2
f 99/2/2 100/2/2 103/2/2
f 101/2/2 102/2/2 103/2/2
f 100/2/2 101/2/2 103/2/2
f 103/2/2 102/2/2 104/2/2
f 105/3/2 106/3/2 108/3/2
f 108/3/2 106/3/2 109/3/2
f 109/3/2 106/3/2 110/3/2
f 107/3/2 108/3/2 112/3/2
f 110/3/2 111/3/2 113/3/2
f 113/3/2 111/3/2 114/3/2
f 107/3/2 112/3/2 115/3/2
f 116/3/2 117/3/2 120/3/2
f 120/3/2 117/3/2 121/3/2
f 118/2/2 119/2/2 122/2/2
f 122/2/2 119/2/2 123/2/2
f 107/3/2 115/3/2 124/3/2
f 124/3/2 115/3/2 125/3/2
f 123/2/2 119/2/2 127/2/2
f 127/2/2 119/2/2 128/2/2
f 125/3/2 126/3/2 130/3/2
f 128/3/2 129/3/2 131/3/2
f 127/3/2 128/3/2 131/3/2
f 131/3/2 129/3/2 132/3/2
f 125/3/2 130/3/2 135/3/2
f 135/3/2 130/3/2 136/3/2
f 133/2/2 134/2/2 137/2/2
f 137/2/2 134/2/2 138/2/2
f 139/2/2 140/2/2 143/2/2
f 140/2/2 141/2/2 143/2/2
f 143/2/2 141/2/2 144/2/2
f 144/2/2 141/2/2 145/2/2
f 145/2/2 141/2/2 146/2/2
f 146/2/2 141/2/2 147/2/2
f 147/2/2 141/2/2 148/2/2
f 142/2/2 143/2/2 149/2/2
f 143/2/2 144/2/2 149/2/2
f 149/2/2 144/2/2 150/2/2
f 145/1/2 146/1/2 151/1/2
f 151/1/2 146/1/2 152/1/2
f 147/1/2 148/1/2 153/1/2
f 153/1/2 148/1/2 154/1/2
f 155/4/2 156/4/2 158/4/2
f 156/2/2 157/2/2 159/2/2
f 158/4/2 156/4/2 159/4/2
f 159/2/2 157/2/2 160/2/2
f 158/2/2 159/2/2 162/2/2
f 162/2/2 159/2/2 163/2/2
f 160/2/2 161/2/2 164/2/2
f 164/2/2 161/2/2 165/2/2
f 162/3/2 163/3/2 166/3/2
f 163/2/2 164/2/2 166/2/2
f 166/2/2 164/2/2 167/2/2
f 166/3/2 167/3/2 169/3/2
f 167/3/2 168/3/2 169/3/2
f 162/3/2 166/3/2 169/3/2
f 169/3/2 168/3/2 170/3/2
f 170/3/2 168/3/2 171/3/2
f 171/3/2 172/3/2 173/3/2
f 170/3/2 171/3/2 173/3/2
f 173/3/2 172/3/2 174/3/2
f 174/3/2 172/3/2 175/3/2
f 173/2/2 174/2/2 177/2/2
f 175/3/2 176/3/2 178/3/2
f 177/2/2 174/2/2 178/2/2
f 174/3/2 175/3/2 178/3/2
f 178/3/2 176/3/2 179/3/2
f 179/3/2 176/3/2 180/3/2
f 177/3/2 178/3/2 182/3/2
f 178/3/2 179/3/2 182/3/2
f 180/2/2 181/2/2 183/2/2
f 182/3/2 179/3/2 183/3/2
f 179/2/2 180/2/2 183/2/2
f 183/2/2 181/2/2 184/2/2
f 185/1/2 186/1/2 187/1/2
f 187/1/2 186/1/2 188/1/2
f 191/3/3 190/3/3 189/3/3
f 192/3/3 190/3/3 191/3/3
f 198/4/3 194/4/3 193/4/3
f 199/2/3 195/2/3 194/2/3
f 199/4/3 194/4/3 198/4/3
f 200/3/3 196/3/3 195/3/3
f 200/2/3 195/2/3 199/2/3
f 201/3/3 196/3/3 200/3/3
f 203/3/3 198/3/3 197/3/3
f 204/3/3 198/3/3 203/3/3
f 207/3/3 202/3/3 201/3/3
f 208/3/3 202/3/3 207/3/3
f 209/4/3 205/4/3 204/4/3
f 210/2/3 206/2/3 205/2/3
f 210/4/3 205/4/3 209/4/3
f 211/3/3 207/3/3 206/3/3
f 211/2/3 206/2/3 210/2/3
f 212/3/3 207/3/3 211/3/3
f 215/1/3 214/1/3 213/1/3
f 216/1/3 214/1/3 215/1/3
f 223/3/3 218/3/3 217/3/3
f 224/2/3 219/2/3 218/2/3
f 224/3/3 218/3/3 223/3/3
f 225/3/3 220/3/3 219/3/3
f 225/2/3 219/2/3 224/2/3
f 228/7/3 222/7/3 221/7/3
f 229/7/3 222/7/3 228/7/3
f 232/3/3 220/3/3 225/3/3
f 233/2/3 227/2/3 226/2/3
f 234/2/3 227/2/3 233/2/3
f 237/3/3 231/3/3 230/3/3
f 238/2/3 232/2/3 231/2/3
f 238/3/3 231/3/3 237/3/3
f 239/3/3 220/3/3 232/3/3
f 239/2/3 232/2/3 238/2/3
f 240/3/3 220/3/3 239/3/3
f 241/1/3 236/1/3 235/1/3
f 242/1/3 236/1/3 241/1/3
f 245/2/3 244/2/3 243/2/3
f 246/2/3 244/2/3 245/2/3
f 249/1/3 248/1/3 247/1/3
f 250/1/3 248/1/3 249/1/3
f 253/2/3 252/2/3 251/2/3
f 254/2/3 252/2/3 253/2/3
f 257/2/3 256/2/3 255/2/3
f 258/2/3 256/2/3 257/2/3
f 263/8/3 260/8/3 259/8/3
f 264/8/3 260/8/3 263/8/3
f 265/1/3 262/1/3 261/1/3
f 266/1/3 262/1/3 265/1/3
f 267/3/4 268/3/4 269/3/4
f 269/3/4 268/3/4 270/3/4
f 271/1/4 272/1/4 274/1/4
f 274/1/4 272/1/4 275/1/4
f 273/2/4 274/2/4 278/2/4
f 278/2/4 274/2/4 279/2/4
f 275/2/4 276/2/4 280/2/4
f 280/2/4 276/2/4 281/2/4
f 277/3/4 278/3/4 282/3/4
f 282/3/4 278/3/4 283/3/4
f 283/2/4 284/2/4 287/2/4
f 287/2/4 284/2/4 288/2/4
f 285/2/4 286/2/4 289/2/4
f 289/2/4 286/2/4 290/2/4
f 288/1/4 289/1/4 291/1/4
f 291/1/4 289/1/4 292/1/4
f 293/2/4 294/2/4 296/2/4
f 296/2/4 294/2/4 297/2/4
f 295/3/4 296/3/4 301/3/4
f 296/3/4 297/3/4 301/3/4
f 297/3/4 298/3/4 301/3/4
f 301/3/4 298/3/4 302/3/4
f 302/3/4 298/3/4 303/3/4
f 303/3/4 298/3/4 304/3/4
f 299/2/4 300/2/4 305/2/4
f 305/2/4 300/2/4 306/2/4
f 302/2/4 303/2/4 307/2/4
f 307/2/4 303/2/4 308/2/4
f 311/7/4 312/7/4 313/7/4
f 313/7/4 312/7/4 314/7/4
f 309/3/4 310/3/4 315/3/4
f 315/3/4 310/3/4 316/3/4
f 317/1/4 318/1/4 319/1/4
f 319/1/4 318/1/4 320/1/4
f 321/3/4 322/3/4 323/3/4
f 323/3/4 322/3/4 324/3/4
f 325/3/4 326/3/4 328/3/4
f 328/3/4 326/3/4 329/3/4
f 327/2/4 328/2/4 330/2/4
f 330/2/4 328/2/4 331/2/4
f 332/3/4 333/3/4 334/3/4
f 334/3/4 333/3/4 335/3/4
f 336/3/4 337/3/4 338/3/4
f 338/3/4 337/3/4 339/3/4
f 340/3/4 341/3/4 342/3/4
f 342/3/4 341/3/4 343/3/4
f 344/2/4 345/2/4 347/2/4
f 347/2/4 345/2/4 348/2/4
f 346/2/4 347/2/4 351/2/4
f 347/8/4 348/8/4 352/8/4
f 351/2/4 347/2/4 352/2/4
f 348/2/4 349/2/4 353/2/4
f 352/8/4 348/8/4 353/8/4
f 349/1/4 350/1/4 354/1/4
f 353/2/4 349/2/4 354/2/4
f 354/1/4 350/1/4 355/1/4
f 352/2/4 353/2/4 356/2/4
f 356/2/4 353/2/4 357/2/4
f 360/3/5 359/3/5 358/3/5
f 361/3/5 359/3/5 360/3/5
f 365/3/5 363/3/5 362/3/5
f 366/3/5 363/3/5 365/3/5
f 368/4/5 365/4/5 364/4/5
f 369/4/5 365/4/5 368/4/5
f 370/4/5 367/4/5 366/4/5
f 371/4/5 367/4/5 370/4/5
f 372/2/5 369/2/5 368/2/5
f 373/2/5 369/2/5 372/2/5
f 374/2/5 371/2/5 370/2/5
f 375/2/5 371/2/5 374/2/5
f 376/3/5 374/3/5 373/3/5
f 377/3/5 374/3/5 376/3/5
f 382/7/5 379/7/5 378/7/5
f 383/7/5 379/7/5 382/7/5
f 386/1/5 381/1/5 380/1/5
f 387/1/5 381/1/5 386/1/5
f 390/1/5 385/1/5 384/1/5
f 391/1/5 385/1/5 390/1/5
f 392/2/5 388/2/5 387/2/5
f 393/2/5 388/2/5 392/2/5
f 394/2/5 390/2/5 389/2/5
f 395/2/5 390/2/5 394/2/5
f 398/2/5 397/2/5 396/2/5
f 399/2/5 397/2/5 398/2/5
f 404/3/5 401/3/5 400/3/5
f 405/3/5 403/3/5 402/3/5
f 406/3/5 404/3/5 400/3/5
f 406/3/5 405/3/5 404/3/5
f 407/3/5 403/3/5 405/3/5
f 407/3/5 405/3/5 406/3/5
f 410/3/5 409/3/5 408/3/5
f 411/3/5 409/3/5 410/3/5
f 412/3/5 409/3/5 411/3/5
f 413/3/5 410/3/5 408/3/5
f 414/3/5 410/3/5 413/3/5
f 416/3/5 415/3/5 414/3/5
f 417/3/5 415/3/5 416/3/5
f 422/3/5 421/3/5 420/3/5
f 423/3/5 419/3/5 418/3/5
f 424/3/5 422/3/5 420/3/5
f 425/2/5 423/2/5 422/2/5
f 425/3/5 422/3/5 424/3/5
f 426/3/5 419/3/5 423/3/5
f 426/2/5 423/2/5 425/2/5
f 427/3/5 419/3/5 426/3/5
f 428/2/5 426/2/5 425/2/5
f 429/2/5 426/2/5 428/2/5
f 434/2/5 431/2/5 430/2/5
f 435/2/5 431/2/5 434/2/5
f 436/2/5 433/2/5 432/2/5
f 437/2/5 433/2/5 436/2/5
f 440/2/5 439/2/5 438/2/5
f 441/2/5 439/2/5 440/2/5
f 444/2/5 443/2/5 442/2/5
f 445/2/5 443/2/5 444/2/5
f 446/3/6 447/3/6 448/3/6
f 448/3/6 447/3/6 449/3/6
f 450/1/6 451/1/6 454/1/6
f 454/1/6 451/1/6 455/1/6
f 452/1/6 453/1/6 458/1/6
f 458/1/6 453/1/6 459/1/6
f 455/2/6 456/2/6 460/2/6
f 460/2/6 456/2/6 461/2/6
f 457/2/6 458/2/6 462/2/6
f 462/2/6 458/2/6 463/2/6
f 464/2/6 465/2/6 466/2/6
f 466/2/6 465/2/6 467/2/6
f 468/3/6 469/3/6 471/3/6
f 471/3/6 469/3/6 472/3/6
f 470/3/6 471/3/6 474/3/6
f 474/3/6 471/3/6 475/3/6
f 472/3/6 473/3/6 476/3/6
f 476/3/6 473/3/6 477/3/6
f 478/3/6 479/3/6 480/3/6
f 480/3/6 479/3/6 481/3/6
f 482/5/6 483/5/6 484/5/6
f 484/5/6 483/5/6 485/5/6
f 484/6/6 485/6/6 486/6/6
f 486/6/6 485/6/6 487/6/6
f 486/2/6 487/2/6 488/2/6
f 488/2/6 487/2/6 489/2/6
f 490/3/6 491/3/6 492/3/6
f 492/3/6 491/3/6 493/3/6
f 490/3/6 492/3/6 494/3/6
f 494/3/6 492/3/6 495/3/6
f 493/3/6 491/3/6 496/3/6
f 496/3/6 491/3/6 497/3/6
f 494/2/6 495/2/6 498/2/6
f 498/2/6 495/2/6 499/2/6
f 496/2/6 497/2/6 500/2/6
f 500/2/6 497/2/6 501/2/6
f 502/2/6 503/2/6 504/2/6
f 504/2/6 503/2/6 505/2/6
f 506/2/6 507/2/6 508/2/6
f 508/2/6 507/2/6 509/2/6
f 510/2/6 511/2/6 512/2/6
f 512/2/6 511/2/6 513/2/6
f 514/1/6 515/1/6 516/1/6
f 516/1/6 515/1/6 517/1/6
f 518/1/6 519/1/6 520/1/6
f 520/1/6 519/1/6 521/1/6
